HIERARCHY
ROOT pelvis
{
  OFFSET 0 100 0
  CHANNELS 6 Xposition Yposition Zposition Zrotation Xrotation Yrotation
  JOINT pelvis_right_femur
  {
    OFFSET -10.78128 -3.44521 -0.5502486
    CHANNELS 3 Zrotation Xrotation Yrotation
    JOINT right_femur_tibia
    {
      OFFSET -0.8047443 -44.0398 -0.1307829
      CHANNELS 3 Zrotation Xrotation Yrotation
      JOINT right_tibia_foot
      {
        OFFSET 3.006224 -47.83518 -5
        CHANNELS 3 Zrotation Xrotation Yrotation
        End Site
        {
          OFFSET 0 -5 15
        }
      }
    }
  }
  JOINT pelvis_left_femur
  {
    OFFSET 10.78128 -3.44521 -0.5502486
    CHANNELS 3 Zrotation Xrotation Yrotation
    JOINT left_femur_tibia
    {
      OFFSET 0.8047443 -44.0398 -0.1307829
      CHANNELS 3 Zrotation Xrotation Yrotation
      JOINT left_tibia_foot
      {
        OFFSET -4.370144 -48.10324 -4.275266
        CHANNELS 3 Zrotation Xrotation Yrotation
        End Site
        {
          OFFSET 0 -5 15
        }
      }
    }
  }
  JOINT pelvis_spine1
  {
    OFFSET 0 6.468898 -3.129235
    CHANNELS 3 Zrotation Xrotation Yrotation
    JOINT spine1
    {
      OFFSET 0 23.15396 4.99043
      CHANNELS 3 Zrotation Xrotation Yrotation
      JOINT spine2
      {
        OFFSET 0 20.79997 -5.064912
        CHANNELS 3 Zrotation Xrotation Yrotation
        JOINT neck
        {
          OFFSET 0 14.38658 9.616178
          CHANNELS 3 Zrotation Xrotation Yrotation
          End Site
          {
            OFFSET 0 20 0
          }
        }
      }
      JOINT right_manubrium
      {
        OFFSET -5.722621 16.35077 3.967754
        CHANNELS 3 Zrotation Xrotation Yrotation
        JOINT right_clavicle
        {
          OFFSET -13.16364 1.694482 -4.693211
          CHANNELS 3 Zrotation Xrotation Yrotation
          JOINT right_humerus
          {
            OFFSET -28.5034 -0.3100689 -2.792744
            CHANNELS 3 Zrotation Xrotation Yrotation
            JOINT right_radius
            {
              OFFSET -25.15693 0.02248979 -1.271978
              CHANNELS 3 Zrotation Xrotation Yrotation
              End Site
              {
                OFFSET -15 0 0
              }
            }
          }
        }
      }
      JOINT left_manubrium
      {
        OFFSET 5.722621 16.35077 3.967754
        CHANNELS 3 Zrotation Xrotation Yrotation
        JOINT left_clavicle
        {
          OFFSET 13.16364 1.694482 -4.693211
          CHANNELS 3 Zrotation Xrotation Yrotation
          JOINT left_humerus
          {
            OFFSET 29.39168 -1.063119 -2.237045
            CHANNELS 3 Zrotation Xrotation Yrotation
            JOINT left_radius
            {
              OFFSET 24.59957 -0.9528479 0.9047498
              CHANNELS 3 Zrotation Xrotation Yrotation
              End Site
              {
                OFFSET 15 -0 -0
              }
            }
          }
        }
      }
    }
  }
}
MOTION
Frames: 7
Frame Time: 0.0416666666667
96.40814 104.4803 3174.687 -0.3977011 -5.666935 -7.463207 3.542261 16.026 4.531881 -0 13.70628 -0 -0.5959392 -14.70842 -1.411489 2.158477 -25.71944 -2.657655 -0 20.04484 -0 -5.185897 -6.552999 19.52761 2.112521 -1.678534 8.223804 0.4796865 14.56963 -6.019995 1.367563 18.76054 -0.4969789 -3.27718 -20.58469 4.158502 -5.593799 -33.1198 12.00462 91.67073 19.88109 -7.744032 -0 0 30.02483 -20.87646 15.30339 17.05716 -0.9568393 -18.98352 -5.830069 -90.82896 10.19793 39.93869 0 0 -14.56971 3.700503 13.0857 9.47637
96.52868 103.6172 3181.448 -0.1636712 -5.44729 -7.974364 2.499253 17.47566 4.465245 -0 17.37773 -0 0.2254111 -13.14275 -1.12674 1.02628 -25.3866 -3.519744 -0 17.87629 -0 -5.293782 -7.119747 19.6984 2.140477 -1.812709 8.352487 0.4191184 14.28865 -5.843676 1.289918 18.36912 -0.4759829 -3.256592 -20.45215 4.077319 -5.354352 -33.4084 11.85291 90.80192 19.49276 -6.998421 -0 0 31.3078 -21.20374 15.91284 17.78013 -0.7556844 -18.59034 -5.58862 -91.3186 10.31906 40.8095 0 0 -14.42573 3.082903 12.62266 10.41554
96.6809 103.0832 3188.566 0.2799078 -5.614083 -8.277187 1.317274 18.24202 4.511087 -0 22.64432 -0 0.9928222 -9.870584 -1.207418 -0.6159586 -24.08508 -4.681022 -0 18.00113 -0 -5.498545 -7.945345 19.84862 2.146976 -1.923071 8.456151 0.3061101 14.15745 -5.674354 1.271011 18.15524 -0.3374587 -3.123509 -20.3678 4.100982 -5.248278 -33.41608 11.72237 90.36866 19.14577 -6.741732 -0 0 31.87101 -21.52109 16.21212 18.16916 -0.5498268 -18.4097 -5.489005 -91.69958 10.55117 41.17027 0 0 -14.49909 2.582667 12.13354 11.23908
96.85406 103.0075 3195.881 0.7826644 -6.080706 -8.286517 0.3039489 17.79095 4.57922 -0 29.37381 -0 1.489218 -5.435728 -1.65279 -2.336038 -21.83203 -5.84684 -0 19.32596 -0 -5.447925 -8.838201 19.84073 2.136387 -1.990533 8.528514 0.1418254 14.21404 -5.523392 1.314197 18.14146 -0.1052933 -2.894885 -20.31567 4.219412 -5.263149 -33.14926 11.6406 90.41567 18.86454 -6.997971 -0 0 31.66829 -21.80486 16.20015 18.19442 -0.3666507 -18.46968 -5.559049 -91.94925 10.88831 41.0103 0 0 -14.75552 2.213725 11.66607 11.9216
97.04663 103.4239 3203.148 1.175761 -6.719332 -7.947289 -0.305979 15.61558 4.52232 -0 36.93489 -0 1.563027 -0.8923407 -2.394446 -3.769108 -18.56081 -6.81485 -0 20.63311 -0 -4.883908 -9.653841 19.54747 2.112589 -2.005026 8.555708 -0.05783693 14.45851 -5.408047 1.411582 18.32591 0.1966417 -2.59337 -20.28635 4.417262 -5.370707 -32.63045 11.62595 90.9366 18.6667 -7.751809 -0 0 30.71364 -22.02555 15.90831 17.86097 -0.2246702 -18.77843 -5.802777 -92.03613 11.31637 40.33015 0 0 -15.20193 1.990624 11.2619 12.42931
97.2558 104.2395 3210.121 1.3381 -7.388589 -7.268858 -0.4641321 11.49342 4.247596 -0 44.03554 -0 1.192677 2.592099 -3.323019 -4.715764 -14.28194 -7.504188 -0 21.0044 -0 -3.832785 -10.40845 18.94724 2.078246 -1.968899 8.519688 -0.2643553 14.85027 -5.349447 1.545742 18.68097 0.5481819 -2.244072 -20.28084 4.676485 -5.537113 -31.89806 11.68054 91.8716 18.5609 -8.945583 -0 0 29.08694 -22.15451 15.39049 17.20936 -0.1287749 -19.31981 -6.196575 -91.92461 11.81104 39.14405 0 0 -15.87889 1.931589 10.95298 12.71704
97.46708 105.2334 3216.642 1.24415 -7.955721 -6.338934 -0.3070565 5.693127 3.775819 -0 48.91633 -0 0.5109702 4.261412 -4.333957 -5.164601 -9.246424 -7.930319 -0 20.11624 -0 -2.666159 -11.29667 18.1552 2.033861 -1.896952 8.404072 -0.4411738 15.3154 -5.368452 1.693183 19.15712 0.9329314 -1.873073 -20.31104 4.977844 -5.731619 -31.00736 11.7892 93.11254 18.54879 -10.47887 -0 0 26.93252 -22.16917 14.71208 16.31136 -0.06925929 -20.05295 -6.690653 -91.58498 12.33411 37.48976 0 0 -16.83744 2.057855 10.76108 12.73039
